<mxfile host="app.diagrams.net" modified="2023-04-17T09:32:20.990Z" agent="Mozilla/5.0 (Windows NT 10.0; Win64; x64) AppleWebKit/537.36 (KHTML, like Gecko) Chrome/112.0.0.0 Safari/537.36" etag="KKkrLSRPB01_4lt1gLvy" version="21.1.8" type="device">
  <diagram name="PÃ¡gina-1" id="wUxPM8W9Y_D9zs6kCm25">
    <mxGraphModel dx="874" dy="476" grid="1" gridSize="10" guides="1" tooltips="1" connect="1" arrows="1" fold="1" page="1" pageScale="1" pageWidth="827" pageHeight="1169" background="#ffffff" math="0" shadow="0">
      <root>
        <mxCell id="0" />
        <mxCell id="1" parent="0" />
        <mxCell id="0XnVakWa5naRY_s_oxba-1" value="" style="rounded=0;whiteSpace=wrap;html=1;fillColor=none;strokeColor=none;" vertex="1" parent="1">
          <mxGeometry x="30" y="30" width="660" height="380" as="geometry" />
        </mxCell>
        <mxCell id="g3cAs3WenKKja_YBL_dD-2" value="Requirements:&lt;br&gt;&lt;ul&gt;&lt;li&gt;Phone parser&lt;/li&gt;&lt;li&gt;Country Codes&lt;/li&gt;&lt;/ul&gt;" style="text;html=1;strokeColor=none;fillColor=none;align=left;verticalAlign=middle;whiteSpace=wrap;rounded=0;fontFamily=Coming Soon;fontSource=https%3A%2F%2Ffonts.googleapis.com%2Fcss%3Ffamily%3DComing%2BSoon;fontStyle=1" parent="1" vertex="1">
          <mxGeometry x="40" y="40" width="160" height="90" as="geometry" />
        </mxCell>
        <mxCell id="g3cAs3WenKKja_YBL_dD-3" value="&lt;h2&gt;Code Library - Package Diagram&lt;/h2&gt;" style="text;html=1;strokeColor=none;fillColor=none;align=center;verticalAlign=middle;whiteSpace=wrap;rounded=0;fontFamily=Coming Soon;fontSource=https%3A%2F%2Ffonts.googleapis.com%2Fcss%3Ffamily%3DComing%2BSoon;fontStyle=5" parent="1" vertex="1">
          <mxGeometry x="266" y="40" width="296" height="30" as="geometry" />
        </mxCell>
        <mxCell id="g3cAs3WenKKja_YBL_dD-4" value="" style="shape=folder;fontStyle=1;spacingTop=10;tabWidth=160;tabHeight=20;tabPosition=left;html=1;whiteSpace=wrap;" parent="1" vertex="1">
          <mxGeometry x="120" y="160" width="560" height="240" as="geometry" />
        </mxCell>
        <mxCell id="g3cAs3WenKKja_YBL_dD-5" value="CodeLibrary" style="text;align=center;fontStyle=1;verticalAlign=middle;spacingLeft=3;spacingRight=3;strokeColor=none;rotatable=0;points=[[0,0.5],[1,0.5]];portConstraint=eastwest;html=1;" parent="1" vertex="1">
          <mxGeometry x="120" y="160" width="160" height="20" as="geometry" />
        </mxCell>
        <mxCell id="g3cAs3WenKKja_YBL_dD-10" style="edgeStyle=orthogonalEdgeStyle;rounded=0;orthogonalLoop=1;jettySize=auto;html=1;exitX=0;exitY=0;exitDx=195;exitDy=90;exitPerimeter=0;entryX=0;entryY=0;entryDx=0;entryDy=90;entryPerimeter=0;dashed=1;endArrow=open;endFill=0;" parent="1" source="g3cAs3WenKKja_YBL_dD-6" target="g3cAs3WenKKja_YBL_dD-8" edge="1">
          <mxGeometry relative="1" as="geometry" />
        </mxCell>
        <mxCell id="g3cAs3WenKKja_YBL_dD-6" value="&lt;blockquote style=&quot;margin: 0 0 0 40px; border: none; padding: 0px;&quot;&gt;&lt;/blockquote&gt;&lt;span style=&quot;background-color: initial;&quot;&gt;Number&lt;/span&gt;&lt;br&gt;Country code&lt;br&gt;&lt;br&gt;digit_length_validator()" style="shape=folder;fontStyle=1;spacingTop=10;tabWidth=95;tabHeight=20;tabPosition=left;html=1;whiteSpace=wrap;align=left;" parent="1" vertex="1">
          <mxGeometry x="165" y="200" width="195" height="160" as="geometry" />
        </mxCell>
        <mxCell id="g3cAs3WenKKja_YBL_dD-7" value="PhoneParser" style="text;align=center;fontStyle=1;verticalAlign=middle;spacingLeft=3;spacingRight=3;strokeColor=none;rotatable=0;points=[[0,0.5],[1,0.5]];portConstraint=eastwest;html=1;" parent="1" vertex="1">
          <mxGeometry x="165" y="200" width="95" height="20" as="geometry" />
        </mxCell>
        <mxCell id="g3cAs3WenKKja_YBL_dD-8" value="CodeArray[]&lt;br&gt;country_code&lt;br&gt;&lt;br&gt;country_code_validator()&lt;br&gt;country_code()" style="shape=folder;fontStyle=1;spacingTop=10;tabWidth=95;tabHeight=20;tabPosition=left;html=1;whiteSpace=wrap;align=left;" parent="1" vertex="1">
          <mxGeometry x="440" y="200" width="200" height="160" as="geometry" />
        </mxCell>
        <mxCell id="g3cAs3WenKKja_YBL_dD-9" value="CountryCodes" style="text;align=center;fontStyle=1;verticalAlign=middle;spacingLeft=3;spacingRight=3;strokeColor=none;rotatable=0;points=[[0,0.5],[1,0.5]];portConstraint=eastwest;html=1;" parent="1" vertex="1">
          <mxGeometry x="440" y="200" width="95" height="20" as="geometry" />
        </mxCell>
      </root>
    </mxGraphModel>
  </diagram>
</mxfile>
